{"title":"Stand by Me Doraemon 2014 (EngDub) 720p Download","magnet":"magnet:?xt=urn:btih:3f256bc8aec366a6f040f90f4892a6bdfa1f9fbf&dn=Stand+by+Me+Doraemon+2014+%28EngDub%29+720p+Download&tr=udp%3A%2F%2Ftracker.leechers-paradise.org%3A6969&tr=udp%3A%2F%2Fzer0day.ch%3A1337&tr=udp%3A%2F%2Fopen.demonii.com%3A1337&tr=udp%3A%2F%2Ftracker.coppersurfer.tk%3A6969&tr=udp%3A%2F%2Fexodus.desync.com%3A6969","uploader":"digimaza","categoryP":"video","categoryS":"movies","size":"1032803976","seeders":"9","leechers":"15","description":"Stand by Me Doraemon 2014 (EngDub) 720p Download\r\nIn the suburbs of Tokyo some time ago, there lived a clumsy boy about 10 years old. There appeared in front of him named Sewashi, Nobita&apos;s descendant of four generations later from the 22nd century, and Doraemon, a 22nd century cat-type caretaker robot who helps people with its secret gadgets.\r\n\r\n..::File Specs::.. \r\nGeneral \r\n\r\nFormat : Matroska \r\nFormat version : Version 4 / Version 2 \r\nFile size : 985 MiB \r\nDuration : 1 h 34 min \r\nOverall bit rate : 1 459 kb/s \r\n\r\nVideo \r\nID : 1 \r\nFormat : AVC \r\nFormat/Info : Advanced Video Codec \r\nFormat profile : <a class=\"__cf_email__\" href=\"/cdn-cgi/l/email-protection\" data-cfemail=\"efa7868887afa3dcc1de\">[email&#xA0;protected]</a><script data-cfhash=\"f9e31\" type=\"text/javascript\">/* <![CDATA[ */!function(t,e,r,n,c,a,p){try{t=document.currentScript||function(){for(t=document.getElementsByTagName('script'),e=t.length;e--;)if(t[e].getAttribute('data-cfhash'))return t[e]}();if(t&&(c=t.previousSibling)){p=t.parentNode;if(a=c.getAttribute('data-cfemail')){for(e='',r='0x'+a.substr(0,2)|0,n=2;a.length-n;n+=2)e+='%'+('0'+('0x'+a.substr(n,2)^r).toString(16)).slice(-2);p.replaceChild(document.createTextNode(decodeURIComponent(e)),c)}p.removeChild(t)}}catch(u){}}()/* ]]> */</script> \r\nFormat settings, CABAC : Yes \r\nFormat settings, ReFrames : 4 frames \r\nCodec ID : V_MPEG4/ISO/AVC \r\nDuration : 1 h 34 min \r\nBit rate : 1 280 kb/s \r\nWidth : 1 280 pixels \r\nHeight : 720 pixels \r\nDisplay aspect ratio : 16:9 \r\nFrame rate mode : Constant \r\nFrame rate : 23.976 (24000/1001) FPS \r\nColor space : YUV \r\nChroma subsampling : 4:2:0 \r\nBit depth : 8 bits \r\nScan type : Progressive \r\nBits/(Pixel*Frame) : 0.058 \r\nStream size : 854 MiB (87%) \r\nWriting library : x264 core 142 r2491 24e4fed \r\nDefault : Yes \r\nForced : No \r\nColor range : Limited \r\nColor primaries : BT.709 \r\nTransfer characteristics : BT.709 \r\nMatrix coefficients : BT.709 \r\n\r\nAudio \r\nID : 2 \r\nFormat : AAC \r\nFormat/Info : Advanced Audio Codec \r\nFormat profile : LC \r\nCodec ID : A_AAC \r\nDuration : 1 h 34 min \r\nBit rate : 192 kb/s \r\nChannel(s) : 2 channels \r\nChannel positions : Front: L R \r\nSampling rate : 44.1 kHz \r\nFrame rate : 43.066 FPS (1024 spf) \r\nCompression mode : Lossy \r\nStream size : 130 MiB (13%) \r\n\r\n..::ScreenShots::.. \r\n <a href=\"\nhttps://s1.postimg.org/isbqnsl2n/vlcsnap-2017-07-12-21h47m33s105.png\" rel=\"nofollow\" target=\"_NEW\">\nhttps://s1.postimg.org/isbqnsl2n/vlcsnap-2017-07-12-21h47m33s105.png</a>  <a href=\"\nhttps://s1.postimg.org/c1vrl9rcf/vlcsnap-2017-07-12-21h47m40s341.png\" rel=\"nofollow\" target=\"_NEW\">\nhttps://s1.postimg.org/c1vrl9rcf/vlcsnap-2017-07-12-21h47m40s341.png</a>  <a href=\"\nhttps://s1.postimg.org/9lty7f99r/vlcsnap-2017-07-12-21h48m11s512.png\" rel=\"nofollow\" target=\"_NEW\">\nhttps://s1.postimg.org/9lty7f99r/vlcsnap-2017-07-12-21h48m11s512.png</a> \r\n\r\n================================================================ \r\nSeed Seed Seed Seed Seed Seed Seed Seed Seed Seed Seed Seed Seed \r\nTo direct download or Watch Online this file, Visit. \r\r\nSeed Seed Seed Seed Seed Seed Seed Seed Seed Seed Seed Seed Seed \r\n================================================================","last_updated":"2017-07-16T12:01:53.777Z","parsed":{"xt":"urn:btih:3f256bc8aec366a6f040f90f4892a6bdfa1f9fbf","dn":"Stand by Me Doraemon 2014 (EngDub) 720p Download","tr":["udp://exodus.desync.com:6969","udp://open.demonii.com:1337","udp://tracker.coppersurfer.tk:6969","udp://tracker.leechers-paradise.org:6969","udp://zer0day.ch:1337"],"infoHash":"3f256bc8aec366a6f040f90f4892a6bdfa1f9fbf","infoHashBuffer":{"type":"Buffer","data":[63,37,107,200,174,195,102,166,240,64,249,15,72,146,166,189,250,31,159,191]},"name":"Stand by Me Doraemon 2014 (EngDub) 720p Download","announce":["udp://exodus.desync.com:6969","udp://open.demonii.com:1337","udp://tracker.coppersurfer.tk:6969","udp://tracker.leechers-paradise.org:6969","udp://zer0day.ch:1337"],"urlList":[]}}